<svg width="40" height="40" viewBox="0 0 40 40" fill="none" xmlns="http://www.w3.org/2000/svg">
<path fill-rule="evenodd" clip-rule="evenodd" d="M16.8966 3.02506C17.6431 2.80111 18.4316 2.75479 19.1992 2.88978C19.9669 3.02476 20.6923 3.33733 21.3176 3.80252C21.9429 4.26772 22.4509 4.87265 22.8008 5.56905C23.1508 6.26544 23.3331 7.034 23.3333 7.81339V32.1867C23.3331 32.9661 23.1508 33.7347 22.8008 34.4311C22.4509 35.1275 21.9429 35.7324 21.3176 36.1976C20.6923 36.6628 19.9669 36.9753 19.1992 37.1103C18.4316 37.2453 17.6431 37.199 16.8966 36.9751L6.89659 33.9751C5.86675 33.6661 4.96393 33.0335 4.32205 32.1709C3.68018 31.3084 3.33343 30.2619 3.33325 29.1867V10.8134C3.33343 9.73822 3.68018 8.69174 4.32205 7.8292C4.96393 6.96665 5.86675 6.33399 6.89659 6.02506L16.8966 3.02506ZM24.9999 6.66672C24.9999 6.22469 25.1755 5.80077 25.4881 5.48821C25.8006 5.17565 26.2246 5.00006 26.6666 5.00006H31.6666C32.9927 5.00006 34.2644 5.52684 35.2021 6.46452C36.1398 7.4022 36.6666 8.67397 36.6666 10.0001V11.6667C36.6666 12.1088 36.491 12.5327 36.1784 12.8452C35.8659 13.1578 35.4419 13.3334 34.9999 13.3334C34.5579 13.3334 34.134 13.1578 33.8214 12.8452C33.5088 12.5327 33.3333 12.1088 33.3333 11.6667V10.0001C33.3333 9.55803 33.1577 9.13411 32.8451 8.82154C32.5325 8.50898 32.1086 8.33339 31.6666 8.33339H26.6666C26.2246 8.33339 25.8006 8.15779 25.4881 7.84523C25.1755 7.53267 24.9999 7.10875 24.9999 6.66672ZM34.9999 26.6667C35.4419 26.6667 35.8659 26.8423 36.1784 27.1549C36.491 27.4674 36.6666 27.8914 36.6666 28.3334V30.0001C36.6666 31.3261 36.1398 32.5979 35.2021 33.5356C34.2644 34.4733 32.9927 35.0001 31.6666 35.0001H26.6666C26.2246 35.0001 25.8006 34.8245 25.4881 34.5119C25.1755 34.1993 24.9999 33.7754 24.9999 33.3334C24.9999 32.8914 25.1755 32.4674 25.4881 32.1549C25.8006 31.8423 26.2246 31.6667 26.6666 31.6667H31.6666C32.1086 31.6667 32.5325 31.4911 32.8451 31.1786C33.1577 30.866 33.3333 30.4421 33.3333 30.0001V28.3334C33.3333 27.8914 33.5088 27.4674 33.8214 27.1549C34.134 26.8423 34.5579 26.6667 34.9999 26.6667ZM14.9999 18.3334C14.5579 18.3334 14.134 18.509 13.8214 18.8215C13.5088 19.1341 13.3333 19.558 13.3333 20.0001C13.3333 20.4421 13.5088 20.866 13.8214 21.1786C14.134 21.4911 14.5579 21.6667 14.9999 21.6667H15.0016C15.4436 21.6667 15.8675 21.4911 16.1801 21.1786C16.4927 20.866 16.6683 20.4421 16.6683 20.0001C16.6683 19.558 16.4927 19.1341 16.1801 18.8215C15.8675 18.509 15.4436 18.3334 15.0016 18.3334H14.9999Z" fill="#292D32"/>
<path d="M34.9998 20.0001L31.6665 23.3334M26.6665 20.0001H34.9998H26.6665ZM34.9998 20.0001L31.6665 16.6667L34.9998 20.0001Z" stroke="#3366FF" stroke-width="3.33333" stroke-linecap="round" stroke-linejoin="round"/>
</svg>
