<svg width="24" height="24" viewBox="0 0 24 24" fill="none" xmlns="http://www.w3.org/2000/svg">
<path d="M20.051 16C20.573 16 21.0002 16.4272 21.0002 16.9492V17.0508C21.0002 17.5728 20.573 18 20.051 18H3.94849C3.42649 18 3.00024 17.5728 3.00024 17.0508V16.9492C3.00024 16.4272 3.42649 16 3.94849 16H20.051ZM20.051 11C20.573 11 21.0002 11.4272 21.0002 11.9492V12.0508C21.0002 12.5728 20.573 13 20.051 13H3.94849C3.42649 13 3.00024 12.5728 3.00024 12.0508V11.9492C3.00024 11.4272 3.42649 11 3.94849 11H20.051ZM20.051 6C20.573 6 21.0002 6.42722 21.0002 6.94922V7.05078C21.0002 7.57278 20.573 8 20.051 8H3.94849C3.42649 8 3.00024 7.57278 3.00024 7.05078V6.94922C3.00024 6.42722 3.42649 6 3.94849 6H20.051Z" fill="#2E3A59"/>
</svg>
