<svg width="25" height="21" viewBox="0 0 25 21" fill="currentColor" xmlns="http://www.w3.org/2000/svg">
<path d="M12.6334 11.0584C12.55 11.05 12.45 11.05 12.3584 11.0584C10.375 10.9917 8.80005 9.36669 8.80005 7.36669C8.80005 5.32502 10.45 3.66669 12.5 3.66669C14.5417 3.66669 16.2 5.32502 16.2 7.36669C16.1917 9.36669 14.6167 10.9917 12.6334 11.0584Z" fill="currentColor"/>
<path d="M8.46672 14.1334C6.45006 15.4834 6.45006 17.6834 8.46672 19.025C10.7584 20.5584 14.5167 20.5584 16.8084 19.025C18.8251 17.675 18.8251 15.475 16.8084 14.1334C14.5251 12.6084 10.7667 12.6084 8.46672 14.1334Z" fill="currentColor"/>
<path opacity="0.4" d="M18.6334 8.05835C18.55 8.05002 18.45 8.05002 18.3584 8.05835C16.375 7.99169 14.8 6.36669 14.8 4.36669C14.8 2.32502 16.45 0.666687 18.5 0.666687C20.5417 0.666687 22.2 2.32502 22.2 4.36669C22.1917 6.36669 20.6167 7.99169 18.6334 8.05835Z" fill="currentColor"/>
<path opacity="0.4" d="M14.4667 11.1334C12.4501 12.4834 12.4501 14.6834 14.4667 16.025C16.7584 17.5584 20.5167 17.5584 22.8084 16.025C24.8251 14.675 24.8251 12.475 22.8084 11.1334C20.5251 9.60837 16.7667 9.60837 14.4667 11.1334Z" fill="currentColor"/>
<path opacity="0.4" d="M6.63338 8.05835C6.55005 8.05002 6.45005 8.05002 6.35838 8.05835C4.37505 7.99169 2.80005 6.36669 2.80005 4.36669C2.80005 2.32502 4.45005 0.666687 6.50005 0.666687C8.54172 0.666687 10.2 2.32502 10.2 4.36669C10.1917 6.36669 8.61672 7.99169 6.63338 8.05835Z" fill="currentColor"/>
<path opacity="0.4" d="M2.46672 11.1334C0.450057 12.4834 0.450057 14.6834 2.46672 16.025C4.75839 17.5584 8.51672 17.5584 10.8084 16.025C12.8251 14.675 12.8251 12.475 10.8084 11.1334C8.52506 9.60837 4.76672 9.60837 2.46672 11.1334Z" fill="currentColor"/>
</svg>
